<svg width="151" height="29" viewBox="0 0 151 29" fill="none" xmlns="http://www.w3.org/2000/svg">
<path d="M46.5533 26.6011H52.5878V10.7453L66.248 26.6011H72.3455V3.44978C72.3455 2.21188 71.3608 1.22876 70.1209 1.22876H66.308V17.4353L52.9991 1.99008C52.5848 1.51351 51.9513 1.22876 51.3148 1.22876H46.5503V26.6011H46.5533Z" fill="white"/>
<path d="M76.9976 26.6011H92.221V20.5765H83.0604V16.9287H92.221V10.9041H83.0604V7.25638H92.221V3.44978C92.221 2.21188 91.1984 1.22876 89.9859 1.22876H76.9976V26.6011Z" fill="white"/>
<path d="M95.6035 26.6011H101.82L104.239 21.361H113.186L115.605 26.6011H121.759L121.822 26.5681L110.708 2.53129C110.364 1.76898 109.61 1.22876 108.699 1.22876C107.788 1.22876 107.005 1.79899 106.69 2.59432L106.658 2.62733L95.6035 26.6011ZM106.874 15.6767L108.726 11.643L110.548 15.6767H106.874Z" fill="white"/>
<path d="M124.359 26.6011H130.576L132.995 21.361H141.942L144.361 26.6011H150.515L150.577 26.5681L139.461 2.53129C139.117 1.76898 138.363 1.22876 137.452 1.22876C136.541 1.22876 135.758 1.79899 135.443 2.59432L135.413 2.62733L124.359 26.6011ZM135.633 15.6767L137.485 11.643L139.307 15.6767H135.633Z" fill="white"/>
<path fill-rule="evenodd" clip-rule="evenodd" d="M27.6095 3.93939C14.9417 -3.95499 5.66699 6.55191 5.66699 6.55191C5.91879 6.52342 6.1639 6.51883 6.40336 6.53679C6.67165 6.26011 6.9495 5.99282 7.23634 5.7355C10.1983 4.04824 14.3172 2.76564 19.407 3.82817C19.407 3.82817 18.5799 4.54992 18.0215 5.66214C17.2344 7.21214 16.716 8.9136 16.7561 10.6577C16.8951 16.5737 22.0461 21.4769 27.4917 22.8613C29.9541 23.3417 32.0772 23.3866 33.5711 23.2943C33.6152 23.2917 33.6581 23.2887 33.7 23.2853C33.7368 23.2827 33.7729 23.2799 33.8091 23.2778C33.8303 23.2766 33.8516 23.2749 33.8728 23.273C33.894 23.2714 33.9152 23.2695 33.9364 23.2683C34.0306 23.2612 34.1249 23.2541 34.2121 23.2446C34.2295 23.2435 34.2462 23.2416 34.2625 23.2397C34.2774 23.238 34.2917 23.2364 34.3063 23.2352C34.3372 23.2323 34.3674 23.229 34.3968 23.2257C35.6968 19.0284 37.1213 9.86703 27.6095 3.93939Z" fill="white"/>
<path d="M32.0088 28.0641C33.233 27.4836 34.2355 26.5129 34.8582 25.3165C33.9996 25.6949 29.0367 27.3778 18.4481 21.4124C9.64981 16.4577 4.0123 16.8902 1.65115 17.4613C1.80683 12.8404 3.9038 8.67779 7.15421 5.78676C10.0414 3.21539 13.839 1.6453 17.9929 1.6453C27.0082 1.6453 34.3416 8.95279 34.3416 17.9361C34.3416 19.7201 33.9807 21.6028 33.4359 23.2317C33.4642 23.2293 33.4901 23.2293 33.5161 23.227C33.5963 23.2223 33.6765 23.2176 33.7543 23.2105C33.7968 23.2082 33.8392 23.2035 33.8817 23.2011C33.976 23.1941 34.068 23.1846 34.1576 23.1776C34.1907 23.1752 34.219 23.1705 34.252 23.1682C34.3251 23.1611 34.3959 23.1517 34.4666 23.1447C34.4902 23.1423 34.5162 23.14 34.5398 23.1353C34.6247 23.1259 34.7072 23.1141 34.7851 23.1024C34.8063 23.1 34.8252 23.0977 34.8464 23.093C34.9266 23.0812 35.0021 23.0695 35.0729 23.0577C35.0752 23.0577 35.0752 23.0577 35.0776 23.0577C35.1342 23.0483 35.1884 23.0389 35.238 23.0295C35.6602 21.4759 35.9999 19.5415 35.9999 17.9361C35.9999 8.04552 27.9257 0 17.9999 0C8.07414 0 0 8.04552 0 17.9361C0 18.2722 0.0141536 18.6201 0.0377415 18.9727C0.136811 20.6744 0.471759 22.3126 1.01428 23.8545C1.11807 24.1577 1.22657 24.4492 1.34215 24.7265C8.6945 21.9977 22.057 28.0312 27.2865 28.6047C27.2771 28.6047 30.0062 28.9362 32.0088 28.0641Z" fill="white"/>
</svg>
