<svg width="185" height="38" viewBox="0 0 185 38" fill="none" xmlns="http://www.w3.org/2000/svg">
<g clip-path="url(#clip0_38_380)">
<path d="M0.57714 0.558398C0.728176 0.530719 0.852013 0.487841 0.975369 0.488161C6.06579 0.50784 11.1565 0.50032 16.2463 0.571358C17.981 0.595357 19.5749 1.20734 20.9999 2.22171C24.2528 4.53637 24.5533 11.149 20.0878 13.5209C19.8606 13.6416 19.6344 13.7635 19.3259 13.9283C20.1745 14.3179 21.0094 14.579 21.7092 15.0438C24.395 16.828 25.4889 20.8202 24.2866 24.3267C23.2373 27.386 20.7462 28.6493 17.8491 29.3213C16.8977 29.5421 15.9012 29.6566 14.9239 29.6635C10.1655 29.6979 5.40677 29.6789 0.57666 29.6789C0.57714 19.9831 0.57714 10.2861 0.57714 0.558398ZM5.66644 25.4112C9.20554 25.4112 12.6426 25.4918 16.0732 25.382C18.2298 25.3131 19.7881 23.0015 19.6584 20.753C19.5305 18.5368 18.1658 16.652 16.0562 16.5535C12.6552 16.3946 9.2449 16.4396 5.83827 16.404C5.7874 16.4037 5.73572 16.4786 5.66628 16.5325L5.66644 25.4112ZM5.67828 12.6101C8.84155 12.6101 11.8922 12.7253 14.9292 12.5718C17.1658 12.4587 18.4282 10.6704 18.3445 8.22587C18.2704 6.06145 16.9924 4.75972 14.6915 4.69893C11.8066 4.62325 8.91851 4.65829 6.03155 4.65157C5.91411 4.65125 5.79652 4.7146 5.67828 4.7482V12.6101ZM163.42 8.60954H167.664V10.8837C168.136 10.5194 168.711 10.1148 169.242 9.65895C172.493 6.86862 180.205 7.21101 182.844 12.8302C185.116 17.6662 185.017 22.5296 181.951 27.0319C180.253 29.5256 177.624 30.4168 174.645 30.2565C172.058 30.1168 169.779 29.3034 167.986 26.9076V37.5116H163.421C163.42 27.869 163.42 18.2667 163.42 8.60954ZM167.731 19.2582C167.922 20.3172 168.027 21.4017 168.323 22.4309C168.982 24.7278 170.991 26.4263 173.072 26.573C175.855 26.7694 177.854 25.7411 178.859 23.2736C180.138 20.1379 180.093 16.9754 178.224 14.0447C176.02 10.5877 170.738 10.8767 168.871 14.4982C168.102 15.989 167.725 17.5581 167.731 19.2582ZM160.414 26.6623C160.414 27.529 160.445 28.4092 160.392 29.2848C160.379 29.501 160.108 29.8661 159.932 29.8811C158.609 29.9914 157.264 30.1843 155.957 30.048C154.806 29.9277 154.171 28.9514 153.816 27.8224C151.081 30.0485 147.946 30.5299 144.61 30.1166C141.821 29.7712 139.511 27.4809 139.312 24.9379C139.037 21.433 140.384 19.1508 143.531 18.32C145.738 17.7376 148.037 17.5035 150.294 17.1101C150.842 17.0147 151.396 16.937 151.931 16.7908C152.958 16.5104 153.699 15.9418 153.774 14.7726C153.852 13.564 153.383 12.6222 152.247 12.1648C150.308 11.3848 148.335 11.4042 146.426 12.2973C145.555 12.7046 145.038 13.5244 144.582 14.9169H140.109C140.113 13.2118 140.706 11.7787 141.839 10.5722C143.335 8.97833 145.285 8.35258 147.385 8.13291C149.583 7.903 151.769 7.91324 153.905 8.63338C156.777 9.60183 158.152 11.4967 158.148 14.5302C158.144 17.7502 158.147 20.9703 158.146 24.1909C158.146 26.4762 158.145 26.4762 160.414 26.6623ZM153.502 19.396C152.092 19.6401 150.802 19.8273 149.53 20.0935C148.191 20.3735 146.826 20.6161 145.55 21.0836C144.298 21.5421 143.873 22.7117 143.915 23.9677C143.954 25.1684 144.774 25.8412 145.831 26.2107C147.644 26.8441 149.462 26.766 151.191 25.9572C152.43 25.3779 153.372 24.4307 153.483 22.9835C153.575 21.7781 153.502 20.5601 153.502 19.396ZM38.4156 8.00107C45.43 7.91868 49.5433 13.0603 49.1094 20.0612C48.9589 22.4946 48.305 24.7688 46.7032 26.6919C44.9772 28.764 42.7563 29.8552 40.0938 30.1512C37.8705 30.399 35.7101 30.2534 33.65 29.3184C30.5821 27.9256 28.832 25.4952 28.0959 22.2567C27.5911 20.0371 27.6132 17.8267 28.1791 15.6311C29.4275 10.7877 33.1572 8.01995 38.4156 8.00107ZM32.3097 19.1732C32.4939 20.2009 32.59 21.2541 32.8791 22.2514C33.615 24.7904 35.6189 26.4668 37.91 26.5778C40.7421 26.7151 42.7237 25.5238 43.7761 22.8858C44.8038 20.3105 44.8054 17.6749 43.6787 15.1306C42.0094 11.3613 37.4617 10.3975 34.5333 13.1992C32.8635 14.7966 32.4324 16.9192 32.3097 19.1732ZM62.7518 8.00139C69.0783 7.99147 73.383 12.2547 73.463 18.5958C73.4969 21.2733 73.0608 23.8266 71.489 26.0695C69.2391 29.2806 65.9893 30.4041 62.2478 30.2337C60.8692 30.1709 59.4402 29.8646 58.1554 29.3603C55.1388 28.1762 53.3402 25.8447 52.5408 22.7242C51.8393 19.9839 51.9173 17.261 52.8098 14.5827C54.1785 10.4743 57.9333 8.00859 62.7518 8.00139ZM68.8157 18.6038C68.7137 18.0414 68.613 16.9547 68.3098 15.9276C67.5391 13.3152 65.5022 11.7291 62.9359 11.6176C60.519 11.5123 58.3452 12.9374 57.4077 15.4332C56.3036 18.3728 56.3849 21.3009 58.0485 24.0398C59.7816 26.8932 63.7103 27.5185 66.2869 25.3896C68.2527 23.7651 68.7337 21.5223 68.8157 18.6038ZM107.932 14.467C106.488 14.467 105.082 14.4788 103.677 14.4519C103.504 14.4487 103.234 14.2753 103.179 14.1199C102.389 11.9254 100.53 11.6645 98.6072 11.6535C97.8101 11.6487 96.962 11.8427 96.2239 12.1523C94.6465 12.8141 94.4712 14.5988 95.9496 15.4537C96.9751 16.0468 98.1793 16.3653 99.336 16.6911C100.973 17.152 102.662 17.4296 104.289 17.921C108.447 19.1777 110.072 23.3466 107.744 26.7833C106.627 28.4314 104.957 29.3235 103.042 29.7858C100.212 30.4688 97.3938 30.5189 94.628 29.52C91.6685 28.4508 90.1052 26.3049 89.8745 23.0568H94.3902C95.6742 26.4082 99.3023 27.7135 102.701 26.0009C103.487 25.6044 104.012 25.0408 104.065 24.1141C104.121 23.1237 103.738 22.272 102.85 21.9405C101.265 21.3495 99.6099 20.9442 97.9831 20.4673C96.6356 20.0721 95.2454 19.7867 93.9451 19.2721C91.4367 18.2787 90.3468 16.5696 90.3622 13.9641C90.3756 11.6915 91.7041 9.74438 94.0595 8.89033C97.3014 7.71484 100.61 7.56861 103.866 8.84425C106.068 9.70663 107.38 11.4074 107.925 13.6972C107.975 13.9086 107.932 14.1428 107.932 14.467ZM83.4147 8.55082H87.5943V11.9685H83.4987C83.4697 12.3778 83.4325 12.6641 83.432 12.9504C83.428 16.4 83.4264 19.8495 83.4336 23.2986C83.4344 23.7576 83.4699 24.2179 83.5152 24.6752C83.6051 25.5873 84.1115 26.1291 85.0299 26.179C85.8714 26.2252 86.7177 26.1889 87.6088 26.1889V29.6062C85.6999 30.0787 83.7598 30.0537 81.8816 29.6354C79.6946 29.1483 78.8062 27.6436 78.787 24.7953C78.7606 20.919 78.7792 17.0419 78.7784 13.1653V12.0256H75.3071V8.5689H78.7315V2.23915H83.4152C83.4147 4.30966 83.4147 6.36496 83.4147 8.55082ZM122.503 29.7379C120.705 29.7379 119.002 29.7939 117.305 29.7219C115.661 29.6522 114.394 28.5615 114.035 26.9337C113.83 26.0054 113.722 25.0584 113.711 24.1078C113.675 20.4607 113.696 16.8127 113.696 13.1651V12.0117H110.236V8.60074H113.645V2.24523H118.337V8.4977H122.497V11.9334H118.506C118.458 12.243 118.396 12.4571 118.396 12.6717C118.392 16.385 118.38 20.0983 118.405 23.8114C118.417 25.7751 118.931 26.2478 120.878 26.2339C121.398 26.2305 121.919 26.2335 122.503 26.2335L122.503 29.7379ZM130.309 8.62138V12.2173C132.111 9.15768 134.605 7.56333 138.288 8.10683V12.543C136.539 12.28 134.851 12.2331 133.356 13.3072C131.396 14.7166 130.711 16.776 130.662 19.0462C130.587 22.5557 130.643 26.0684 130.643 29.6565H126.046V8.62106C127.439 8.62138 128.802 8.62138 130.309 8.62138Z" fill="#1A046F"/>
</g>
<defs>
<clipPath id="clip0_38_380">
<rect width="184.014" height="37.0236" fill="white" transform="translate(0.489258 0.488159)"/>
</clipPath>
</defs>
</svg>
