<svg width="153" height="122" viewBox="0 0 153 122" fill="none" xmlns="http://www.w3.org/2000/svg">
<path d="M23.63 28.06C23.63 28.06 62.99 -16.34 116.75 17.02C170.51 50.38 141.95 107.98 141.95 107.98C141.95 107.98 89.87 102.7 70.19 76.3C50.51 49.9 40.67 26.14 23.63 28.06Z" fill="#4D9FC1"/>
<path d="M148.67 98.09C148.66 98.09 148.66 98.09 148.65 98.09C148.35 98.14 148.03 98.19 147.69 98.24C147.6 98.25 147.52 98.26 147.43 98.28C147.1 98.33 146.75 98.37 146.39 98.42C146.29 98.43 146.19 98.44 146.08 98.46C145.79 98.49 145.49 98.53 145.17 98.56C145.04 98.57 144.91 98.59 144.77 98.6C144.4 98.64 144 98.67 143.6 98.7C143.42 98.71 143.24 98.73 143.06 98.74C142.73 98.76 142.4 98.79 142.05 98.81C135.71 99.2 126.7 99.01 116.25 96.98C93.14 91.13 71.28 70.41 70.69 45.41C70.52 38.04 72.72 30.85 76.06 24.3C78.43 19.6 81.94 16.55 81.94 16.55C60.34 12.06 42.86 17.48 30.29 24.61C16.51 36.92 7.61999 54.62 6.95999 74.28C16.97 71.85 40.87 70.01 78.17 91.09C123.07 116.47 144.11 109.31 147.74 107.7C149.31 104.66 150.31 101.28 150.58 97.69C150.23 97.78 149.81 97.87 149.32 97.96C149.14 98.01 148.91 98.05 148.67 98.09Z" fill="white"/>
<path d="M135.7 119.4C140.89 116.93 145.14 112.8 147.78 107.71C144.14 109.32 123.1 116.48 78.21 91.1C40.91 70.02 17.01 71.86 7 74.29C7.66 54.63 16.55 36.92 30.33 24.62C42.57 13.68 58.67 7 76.28 7C114.5 7 145.59 38.09 145.59 76.31C145.59 83.9 144.06 91.91 141.75 98.84C141.87 98.83 141.98 98.83 142.09 98.82C142.43 98.8 142.77 98.78 143.1 98.75C143.28 98.74 143.46 98.72 143.64 98.71C144.04 98.68 144.43 98.64 144.81 98.61C144.95 98.6 145.07 98.58 145.21 98.57C145.52 98.54 145.82 98.5 146.12 98.47C146.22 98.46 146.33 98.45 146.43 98.43C146.79 98.39 147.14 98.34 147.47 98.29C147.56 98.28 147.64 98.27 147.73 98.25C148.07 98.2 148.39 98.15 148.69 98.1C148.7 98.1 148.7 98.1 148.71 98.1C148.95 98.06 149.18 98.02 149.39 97.98C151.18 91.37 152.62 83.14 152.62 76.31C152.62 34.23 118.39 0 76.31 0C34.23 0 0 34.23 0 76.31C0 77.74 0.059996 79.22 0.159996 80.72C0.579996 87.96 2 94.93 4.3 101.49C4.74 102.78 5.2 104.02 5.68999 105.2C36.86 93.59 93.51 119.26 115.68 121.7C115.64 121.7 127.21 123.11 135.7 119.4Z" fill="#13007C"/>
</svg>
